<?xml version="1.0" encoding="utf-8" standalone="no"?>
<!DOCTYPE svg PUBLIC "-//W3C//DTD SVG 1.1//EN"
  "http://www.w3.org/Graphics/SVG/1.1/DTD/svg11.dtd">
<svg xmlns:xlink="http://www.w3.org/1999/xlink" width="640pt" height="360pt" viewBox="0 0 640 360" xmlns="http://www.w3.org/2000/svg" version="1.1">
 <metadata>
  <rdf:RDF xmlns:dc="http://purl.org/dc/elements/1.1/" xmlns:cc="http://creativecommons.org/ns#" xmlns:rdf="http://www.w3.org/1999/02/22-rdf-syntax-ns#">
   <cc:Work>
    <dc:type rdf:resource="http://purl.org/dc/dcmitype/StillImage"/>
    <dc:date>2024-02-12T04:36:20.417897</dc:date>
    <dc:format>image/svg+xml</dc:format>
    <dc:creator>
     <cc:Agent>
      <dc:title>Matplotlib v3.7.2, https://matplotlib.org/</dc:title>
     </cc:Agent>
    </dc:creator>
   </cc:Work>
  </rdf:RDF>
 </metadata>
 <defs>
  <style type="text/css">*{stroke-linejoin: round; stroke-linecap: butt}</style>
 </defs>
 <g id="figure_1">
  <g id="patch_1">
   <path d="M 0 360 
L 640 360 
L 640 0 
L 0 0 
z
" style="fill: #ffffff"/>
  </g>
  <g id="axes_1">
   <g id="line2d_1">
    <path d="M 162.08 326.64 
L 477.92 326.64 
" clip-path="url(#p9c0d90a72d)" style="fill: none; stroke: #ff7f0e; stroke-width: 3; stroke-linecap: square"/>
   </g>
   <g id="patch_2">
    <path d="M 286.16 326.64 
L 353.84 326.64 
L 331.28 157.44 
L 308.72 157.44 
z
" clip-path="url(#p9c0d90a72d)" style="fill: #ff7f0e"/>
   </g>
   <g id="PolyCollection_1">
    <path d="M 162.08 326.64 
L 162.08 349.2 
L 477.92 349.2 
L 477.92 326.64 
L 477.92 326.64 
L 162.08 326.64 
z
" clip-path="url(#p9c0d90a72d)" style="fill: url(#hcb7a58b863)"/>
   </g>
   <g id="line2d_2">
    <path d="M 320 168.72 
L 376.4 71.032334 
" clip-path="url(#p9c0d90a72d)" style="fill: none; stroke: #1f77b4; stroke-width: 5; stroke-linecap: square"/>
   </g>
   <g id="line2d_3">
    <path d="M 320 168.72 
" clip-path="url(#p9c0d90a72d)" style="fill: none; stroke: #1f77b4; stroke-width: 1.5; stroke-linecap: square"/>
    <defs>
     <path id="m4d63423fff" d="M 0 5 
C 1.326016 5 2.597899 4.473168 3.535534 3.535534 
C 4.473168 2.597899 5 1.326016 5 0 
C 5 -1.326016 4.473168 -2.597899 3.535534 -3.535534 
C 2.597899 -4.473168 1.326016 -5 0 -5 
C -1.326016 -5 -2.597899 -4.473168 -3.535534 -3.535534 
C -4.473168 -2.597899 -5 -1.326016 -5 0 
C -5 1.326016 -4.473168 2.597899 -3.535534 3.535534 
C -2.597899 4.473168 -1.326016 5 0 5 
z
" style="stroke: #1f77b4"/>
    </defs>
    <g clip-path="url(#p9c0d90a72d)">
     <use xlink:href="#m4d63423fff" x="320" y="168.72" style="fill: #1f77b4; stroke: #1f77b4"/>
    </g>
   </g>
   <g id="line2d_4">
    <path d="M 376.4 71.032334 
" clip-path="url(#p9c0d90a72d)" style="fill: none; stroke: #1f77b4; stroke-width: 1.5; stroke-linecap: square"/>
    <defs>
     <path id="m32d5c5f3e0" d="M 0 7.5 
C 1.989023 7.5 3.896849 6.709753 5.303301 5.303301 
C 6.709753 3.896849 7.5 1.989023 7.5 0 
C 7.5 -1.989023 6.709753 -3.896849 5.303301 -5.303301 
C 3.896849 -6.709753 1.989023 -7.5 0 -7.5 
C -1.989023 -7.5 -3.896849 -6.709753 -5.303301 -5.303301 
C -6.709753 -3.896849 -7.5 -1.989023 -7.5 0 
C -7.5 1.989023 -6.709753 3.896849 -5.303301 5.303301 
C -3.896849 6.709753 -1.989023 7.5 0 7.5 
z
" style="stroke: #1f77b4"/>
    </defs>
    <g clip-path="url(#p9c0d90a72d)">
     <use xlink:href="#m32d5c5f3e0" x="376.4" y="71.032334" style="fill: #1f77b4; stroke: #1f77b4"/>
    </g>
   </g>
   <g id="line2d_5">
    <path d="M 320 168.72 
" clip-path="url(#p9c0d90a72d)" style="fill: none; stroke: #ff7f0e; stroke-width: 1.5; stroke-linecap: square"/>
    <defs>
     <path id="m07ddbd90ad" d="M 0 2 
C 0.530406 2 1.03916 1.789267 1.414214 1.414214 
C 1.789267 1.03916 2 0.530406 2 0 
C 2 -0.530406 1.789267 -1.03916 1.414214 -1.414214 
C 1.03916 -1.789267 0.530406 -2 0 -2 
C -0.530406 -2 -1.03916 -1.789267 -1.414214 -1.414214 
C -1.789267 -1.03916 -2 -0.530406 -2 0 
C -2 0.530406 -1.789267 1.03916 -1.414214 1.414214 
C -1.03916 1.789267 -0.530406 2 0 2 
z
" style="stroke: #ff7f0e"/>
    </defs>
    <g clip-path="url(#p9c0d90a72d)">
     <use xlink:href="#m07ddbd90ad" x="320" y="168.72" style="fill: #ff7f0e; stroke: #ff7f0e"/>
    </g>
   </g>
   <g id="line2d_6">
    <path d="M 320 349.2 
L 320 33.36 
" clip-path="url(#p9c0d90a72d)" style="fill: none; stroke-dasharray: 3.7,1.6; stroke-dashoffset: 0; stroke: #808080"/>
   </g>
   <g id="line2d_7">
    <path d="M 320 89.76 
L 320.413432 89.761082 
L 320.826852 89.764329 
L 321.24025 89.769741 
L 321.653613 89.777317 
L 322.066932 89.787058 
L 322.480194 89.798962 
L 322.893387 89.81303 
L 323.306502 89.829261 
L 323.719525 89.847655 
L 324.132447 89.868212 
L 324.545256 89.89093 
L 324.957939 89.91581 
L 325.370487 89.942849 
L 325.782888 89.972049 
L 326.19513 90.003407 
L 326.607203 90.036924 
L 327.019094 90.072597 
L 327.430792 90.110427 
L 327.842287 90.150412 
L 328.253567 90.192551 
L 328.664621 90.236843 
L 329.075437 90.283286 
L 329.486005 90.33188 
L 329.896312 90.382623 
L 330.306348 90.435514 
L 330.716102 90.490551 
L 331.125561 90.547732 
L 331.534716 90.607057 
L 331.943554 90.668523 
L 332.352065 90.732129 
L 332.760238 90.797873 
L 333.16806 90.865753 
L 333.575522 90.935768 
L 333.982611 91.007915 
L 334.389317 91.082192 
L 334.795629 91.158599 
L 335.201534 91.237131 
L 335.607024 91.317788 
L 336.012085 91.400567 
L 336.416707 91.485465 
L 336.820879 91.572481 
L 337.22459 91.661612 
L 337.627829 91.752856 
L 338.030585 91.84621 
L 338.432846 91.941671 
L 338.834602 92.039237 
L 339.235841 92.138906 
L 339.636553 92.240674 
L 340.036727 92.344538 
L 340.436352 92.450497 
L 340.835416 92.558546 
L 341.233909 92.668684 
L 341.63182 92.780906 
L 342.029138 92.895211 
L 342.425852 93.011594 
L 342.821951 93.130052 
L 343.217424 93.250584 
L 343.612261 93.373184 
L 344.00645 93.497849 
L 344.399982 93.624577 
L 344.792844 93.753364 
L 345.185027 93.884206 
L 345.576519 94.0171 
L 345.96731 94.152042 
L 346.35739 94.289028 
L 346.746746 94.428054 
L 347.135369 94.569118 
L 347.523249 94.712214 
L 347.910374 94.857339 
L 348.296733 95.00449 
L 348.682317 95.153661 
L 349.067115 95.304849 
L 349.451115 95.458049 
L 349.834309 95.613259 
L 350.216684 95.770472 
L 350.598231 95.929686 
L 350.978939 96.090895 
L 351.358797 96.254095 
L 351.737796 96.419282 
L 352.115925 96.586451 
L 352.493174 96.755597 
L 352.869531 96.926717 
L 353.244988 97.099805 
L 353.619533 97.274856 
L 353.993156 97.451866 
L 354.365848 97.63083 
L 354.737597 97.811743 
L 355.108394 97.994599 
L 355.478228 98.179395 
L 355.84709 98.366125 
L 356.214969 98.554783 
L 356.581855 98.745365 
L 356.947738 98.937866 
L 357.312608 99.132279 
L 357.676456 99.328601 
L 358.03927 99.526825 
L 358.401042 99.726945 
L 358.76176 99.928957 
L 359.121416 100.132856 
L 359.48 100.338634 
" clip-path="url(#p9c0d90a72d)" style="fill: none; stroke: #000000; stroke-width: 0.8; stroke-linecap: square"/>
   </g>
   <g id="line2d_8">
    <path d="M 320 168.72 
" clip-path="url(#p9c0d90a72d)" style="fill: none; stroke: #000000; stroke-width: 1.5; stroke-linecap: square"/>
    <defs>
     <path id="m000354ed10" d="M 0 5 
C 1.326016 5 2.597899 4.473168 3.535534 3.535534 
C 4.473168 2.597899 5 1.326016 5 0 
C 5 -1.326016 4.473168 -2.597899 3.535534 -3.535534 
C 2.597899 -4.473168 1.326016 -5 0 -5 
C -1.326016 -5 -2.597899 -4.473168 -3.535534 -3.535534 
C -4.473168 -2.597899 -5 -1.326016 -5 0 
C -5 1.326016 -4.473168 2.597899 -3.535534 3.535534 
C -2.597899 4.473168 -1.326016 5 0 5 
z
" style="stroke: #000000"/>
    </defs>
    <g clip-path="url(#p9c0d90a72d)">
     <use xlink:href="#m000354ed10" x="320" y="168.72" style="fill: #ffffff; stroke: #000000"/>
    </g>
   </g>
   <g id="line2d_9">
    <path d="M 320 168.72 
" clip-path="url(#p9c0d90a72d)" style="fill: none; stroke: #000000; stroke-width: 1.5; stroke-linecap: square"/>
    <defs>
     <path id="mca4bc027ff" d="M -3 3 
L 3 -3 
M -3 -3 
L 3 3 
" style="stroke: #000000"/>
    </defs>
    <g clip-path="url(#p9c0d90a72d)">
     <use xlink:href="#mca4bc027ff" x="320" y="168.72" style="stroke: #000000"/>
    </g>
   </g>
   <g id="patch_3">
    <path d="M 359.382312 100.282234 
Q 359.431156 100.310434 358.511754 99.779617 
" style="fill: none; stroke: #000000; stroke-linecap: round"/>
    <path d="M 356.047653 96.047566 
L 358.511754 99.779617 
L 354.047653 99.511668 
z
" style="stroke: #000000; stroke-linecap: round"/>
   </g>
   <g id="text_1">
    <!-- $\phi$ -->
    <g transform="translate(339.179987 87.573546) scale(0.1 -0.1)">
     <defs>
      <path id="DejaVuSans-Oblique-3d5" d="M 2991 4863 
L 2738 3572 
Q 3363 3572 3684 3094 
Q 4016 2606 3850 1747 
Q 3681 888 3159 400 
Q 2653 -78 2028 -78 
L 1784 -1331 
L 1213 -1331 
L 1456 -78 
Q 834 -78 509 400 
Q 178 888 347 1747 
Q 513 2606 1034 3094 
Q 1544 3572 2166 3572 
L 2419 4863 
L 2991 4863 
z
M 2128 434 
Q 2481 434 2784 756 
Q 3116 1116 3244 1747 
Q 3369 2372 3169 2738 
Q 2991 3059 2638 3059 
L 2128 434 
z
M 1556 434 
L 2066 3059 
Q 1716 3059 1413 2738 
Q 1072 2372 953 1747 
Q 834 1116 1028 756 
Q 1203 434 1556 434 
z
" transform="scale(0.015625)"/>
     </defs>
     <use xlink:href="#DejaVuSans-Oblique-3d5" transform="translate(0 0.015625)"/>
    </g>
   </g>
   <g id="patch_4">
    <path d="M 376.4 136.880024 
Q 376.4 163.078938 376.4 188.159818 
" style="fill: none; stroke: #000000; stroke-linecap: round"/>
    <path d="M 378.4 184.159818 
L 376.4 188.159818 
L 374.4 184.159818 
z
" style="stroke: #000000; stroke-linecap: round"/>
   </g>
   <g id="text_2">
    <!-- $\mathbf{g}$ -->
    <g transform="translate(380.912 165.719063) scale(0.1 -0.1)">
     <defs>
      <path id="DejaVuSans-Bold-67" d="M 2919 594 
Q 2688 288 2409 144 
Q 2131 0 1766 0 
Q 1125 0 706 504 
Q 288 1009 288 1791 
Q 288 2575 706 3076 
Q 1125 3578 1766 3578 
Q 2131 3578 2409 3434 
Q 2688 3291 2919 2981 
L 2919 3500 
L 4044 3500 
L 4044 353 
Q 4044 -491 3511 -936 
Q 2978 -1381 1966 -1381 
Q 1638 -1381 1331 -1331 
Q 1025 -1281 716 -1178 
L 716 -306 
Q 1009 -475 1290 -558 
Q 1572 -641 1856 -641 
Q 2406 -641 2662 -400 
Q 2919 -159 2919 353 
L 2919 594 
z
M 2181 2772 
Q 1834 2772 1640 2515 
Q 1447 2259 1447 1791 
Q 1447 1309 1634 1061 
Q 1822 813 2181 813 
Q 2531 813 2725 1069 
Q 2919 1325 2919 1791 
Q 2919 2259 2725 2515 
Q 2531 2772 2181 2772 
z
" transform="scale(0.015625)"/>
     </defs>
     <use xlink:href="#DejaVuSans-Bold-67" transform="translate(0 0.09375)"/>
    </g>
   </g>
   <g id="patch_5">
    <path d="M 378.400024 71.032334 
Q 404.598938 71.032334 429.679818 71.032334 
" style="fill: none; stroke: #000000; stroke-linecap: round"/>
    <path d="M 425.679818 69.032334 
L 429.679818 71.032334 
L 425.679818 73.032334 
z
" style="stroke: #000000; stroke-linecap: round"/>
   </g>
   <g id="text_3">
    <!-- $F$ -->
    <g transform="translate(429.9 68.952647) scale(0.1 -0.1)">
     <defs>
      <path id="DejaVuSans-Oblique-46" d="M 1081 4666 
L 3756 4666 
L 3653 4134 
L 1606 4134 
L 1338 2759 
L 3188 2759 
L 3084 2228 
L 1234 2228 
L 800 0 
L 172 0 
L 1081 4666 
z
" transform="scale(0.015625)"/>
     </defs>
     <use xlink:href="#DejaVuSans-Oblique-46" transform="translate(0 0.09375)"/>
    </g>
   </g>
  </g>
 </g>
 <defs>
  <clipPath id="p9c0d90a72d">
   <rect x="162.08" y="10.8" width="315.84" height="338.4"/>
  </clipPath>
 </defs>
 <defs>
  <pattern id="hcb7a58b863" patternUnits="userSpaceOnUse" x="0" y="0" width="72" height="72">
   <rect x="0" y="0" width="73" height="73" fill="#ffffff"/>
   <path d="M -36 36 
L 36 -36 
M -30 42 
L 42 -30 
M -24 48 
L 48 -24 
M -18 54 
L 54 -18 
M -12 60 
L 60 -12 
M -6 66 
L 66 -6 
M 0 72 
L 72 0 
M 6 78 
L 78 6 
M 12 84 
L 84 12 
M 18 90 
L 90 18 
M 24 96 
L 96 24 
M 30 102 
L 102 30 
M 36 108 
L 108 36 
" style="fill: #ff7f0e; stroke: #ff7f0e; stroke-width: 1.0; stroke-linecap: butt; stroke-linejoin: miter"/>
  </pattern>
 </defs>
</svg>
